<svg xmlns="http://www.w3.org/2000/svg" viewBox="0 0 118.85 128.27"><defs><style>.cls-1{fill:#f1980a;}.cls-2{fill:none;stroke:#f1980a;stroke-linecap:round;stroke-miterlimit:10;}</style></defs><title>Ресурс 1</title><g id="Слой_2" data-name="Слой 2"><g id="Слой_1-2" data-name="Слой 1"><polygon class="cls-1" points="59.26 0.5 59.59 0.88 44.81 75.88 44.81 127.77 0.5 127.77 0.5 77.02 35.34 0.5 59.26 0.5"/><line class="cls-2" x1="0.5" y1="77.02" x2="0.5" y2="127.77"/><line class="cls-2" x1="0.5" y1="127.77" x2="44.81" y2="127.77"/><line class="cls-2" x1="44.81" y1="127.77" x2="44.81" y2="75.88"/><line class="cls-2" x1="0.5" y1="77.02" x2="35.34" y2="0.5"/><line class="cls-2" x1="35.34" y1="0.5" x2="59.26" y2="0.5"/><line class="cls-2" x1="59.59" y1="0.88" x2="44.81" y2="75.88"/><polygon class="cls-1" points="118.35 0.88 103.57 75.88 103.57 127.77 59.26 127.77 59.26 77.02 94.1 0.5 118.02 0.5 118.35 0.88"/><line class="cls-2" x1="59.26" y1="77.02" x2="59.26" y2="127.77"/><line class="cls-2" x1="59.26" y1="127.77" x2="103.57" y2="127.77"/><line class="cls-2" x1="103.57" y1="127.77" x2="103.57" y2="75.88"/><line class="cls-2" x1="59.26" y1="77.02" x2="94.1" y2="0.5"/><line class="cls-2" x1="94.1" y1="0.5" x2="118.02" y2="0.5"/><line class="cls-2" x1="118.35" y1="0.88" x2="103.57" y2="75.88"/></g></g></svg>