<svg xmlns="http://www.w3.org/2000/svg" viewBox="0 0 118.85 128.27"><defs><style>.cls-1{fill:#f1980a}.cls-2{fill:none;stroke:#f1980a;stroke-linecap:round;stroke-miterlimit:10}</style></defs><g id="Слой_2" data-name="Слой 2"><g id="Слой_1-2" data-name="Слой 1"><path class="cls-1" d="M59.26.5l.33.38-14.78 75v51.89H.5V77.02L35.34.5h23.92z"/><path class="cls-2" d="M.5 77.02v50.75m0 0h44.31m0 0V75.88M.5 77.02L35.34.5m0 0h23.92m.33.38l-14.78 75"/><path class="cls-1" d="M118.35.88l-14.78 75v51.89H59.26V77.02L94.1.5h23.92l.33.38z"/><path class="cls-2" d="M59.26 77.02v50.75m0 0h44.31m0 0V75.88m-44.31 1.14L94.1.5m0 0h23.92m.33.38l-14.78 75"/></g></g></svg>